<?xml version="1.0" encoding="utf-8"?>
<!-- Generator: Adobe Illustrator 21.0.2, SVG Export Plug-In . SVG Version: 6.00 Build 0)  -->
<svg version="1.1" id="Слой_1" xmlns="http://www.w3.org/2000/svg" xmlns:xlink="http://www.w3.org/1999/xlink" x="0px" y="0px"
	 viewBox="0 0 1000 1000" style="enable-background:new 0 0 1000 1000;" xml:space="preserve">
<style type="text/css">
	.st0{fill:none;}
</style>
<rect x="-0.2" y="0.5" class="st0" width="1000" height="1000"/>
<path d="M660.9,485.3c-0.8-1.2-1.6-2.3-2.6-3.3c-22.6-23.4-45.6-46.4-68.5-69.5c-66.2-66.9-132.4-133.7-198.7-200.5
	c-5.4-5.4-10.3-11.5-16.2-16.4c-4.5-4.6-10.8-7.4-17.7-7.4c-13.7,0-24.8,11.1-24.8,24.8c0,6.6,2.6,12.6,6.8,17c-0.1,0-0.1,0-0.2,0
	c0.3,0.4,0.7,0.9,1.1,1.3c10.2,11.3,21,22.1,31.6,33.1c31.2,32.4,62.4,64.8,93.6,97.2c35.6,36.9,71.2,73.8,106.8,110.8
	c8.8,9.2,17.7,18.4,26.6,27.7c-0.9,1.2-1.5,1.9-2.2,2.6c-24.9,26-49.8,52.1-74.8,78c-28.1,29.2-56.3,58.2-84.4,87.4
	c-27.3,28.3-54.7,56.5-81.8,85.1c-6,6.3-14.2,13.6-18.7,20.5c-2.8,4-4.5,8.9-4.5,14.2c0,13.7,11.1,24.8,24.8,24.8
	c8.1,0,15.3-3.9,19.8-10c28.7-28.5,57.1-57.4,85.6-86.1c60.4-61,120.8-121.9,181-183c5.6-5.7,11.9-10.8,16.7-17.1
	c4.2-4,6.8-9.6,6.8-15.8C667.3,494.7,664.8,489.2,660.9,485.3z"/>
</svg>
