<?xml version="1.0" encoding="utf-8"?>
<!-- Generator: Adobe Illustrator 21.0.2, SVG Export Plug-In . SVG Version: 6.00 Build 0)  -->
<svg version="1.1" id="Слой_1" xmlns="http://www.w3.org/2000/svg" xmlns:xlink="http://www.w3.org/1999/xlink" x="0px" y="0px"
	 viewBox="0 0 1000 1000" style="enable-background:new 0 0 1000 1000;" xml:space="preserve">
<style type="text/css">
	.st0{fill:none;}
	.st1{fill:#9D9D9C;}
</style>
<rect x="-0.3" y="0.4" class="st0" width="1000" height="1000"/>
<path class="st1" d="M851.2,310.7c-13.5-52.1-48-95.5-94.7-119.3c-46.6-23.8-102-26.1-151.9-6.4c-45.3,17.9-80.2,49.2-103.7,93.1
	l-1.3,2.4l-1.3-2.4c-2-3.7-4.7-8.6-7.8-13.6c-42-67.4-119.6-102.6-197.8-89.6c-36.2,6-69.3,23.2-95.8,49.7
	c-26.4,26.4-44.2,60.2-51.6,97.8c-1.6,8.2-2.8,16.4-4,24.3c-0.5,3.7-1.1,7.4-1.7,11.1l-0.1,40.6l0.3,1.4c0.1,0.5,0.3,1,0.5,1.7
	c0.2,0.9,0.5,1.7,0.6,2.3h0c1,5.4,1.9,10.9,2.8,16.3c1.9,11.6,3.8,23.7,7,35.4c13.8,51.5,40.7,101.5,82.3,153
	c65,80.6,147.8,151.4,253.1,216.7c4.3,2.6,8.7,4,13.3,4c5.1,0,10.4-1.7,15.9-5c90.1-55.8,164.3-116.8,226.8-186.4
	c41.6-46.3,71.5-91.6,91.6-138.4C861.3,433.9,867.1,372.3,851.2,310.7z M512.7,769.6c-4,2.6-8.1,5.3-12.3,8.1l-0.8,0.6l-0.8-0.5
	c-91.6-59-163.5-120.4-220.1-187.9c-39.5-47.2-64.9-90.7-80-137.1c-8-24.7-12.2-50-12.3-75.3c0.6-40.8,9.2-72.4,27.3-99.3
	c25-37.3,66.8-59.5,111.7-59.5c20.7,0,40.8,4.6,59.9,13.6c46.1,21.8,75.3,59.5,89.1,115.4c0.3,1.2,0.6,2.4,0.8,3.7
	c0.4,2,0.9,4.3,1.6,6.6c3.1,10.5,11.7,17.5,22.1,17.8l0.6,0c10.5,0,19.6-7.2,22.6-17.8c1.2-4,2.2-8.1,3.2-12.1
	c1.8-7.3,3.6-14.2,6-20.8c20.9-56,58.5-90.4,111.6-102.4c73.4-16.6,141.6,25,162.1,99c13.2,47.8,9.6,96.6-11.3,149.4
	c-17.9,45.4-45.9,88.6-88,135.9c-47.2,53-104.7,102.5-175.6,151.2c-4.5,3.1-9.1,6.1-13.6,9.1l-0.4-0.6l-3.8,2.7L512.7,769.6z"/>
</svg>
