<?xml version="1.0" encoding="utf-8"?>
<!-- Generator: Adobe Illustrator 21.0.2, SVG Export Plug-In . SVG Version: 6.00 Build 0)  -->
<svg version="1.1" id="Слой_1" xmlns="http://www.w3.org/2000/svg" xmlns:xlink="http://www.w3.org/1999/xlink" x="0px" y="0px"
	 viewBox="0 0 1000 1000" style="enable-background:new 0 0 1000 1000;" xml:space="preserve">
<style type="text/css">
	.st0{fill:none;}
	.st1{fill:#EF6F20;}
</style>
<rect x="0.5" y="2.7" class="st0" width="1000" height="1000"/>
<path class="st1" d="M860.4,393.6c1.3-27.1-1.5-53.8-8.4-80.6c-13.5-52.1-48-95.5-94.7-119.3c-46.6-23.8-102-26.1-151.9-6.4
	c-45.3,17.9-80.2,49.2-103.7,93.1l-1.3,2.4l-1.3-2.4c-2-3.7-4.7-8.6-7.8-13.6c-42-67.4-119.6-102.6-197.8-89.6
	c-36.2,6-69.3,23.2-95.8,49.7c-26.4,26.4-44.2,60.2-51.6,97.8c-1.6,8.2-2.8,16.4-4,24.3c-0.5,3.7-1.1,7.4-1.7,11.1l-0.1,40.6
	l0.3,1.4c0.1,0.5,0.3,1,0.5,1.7c0.2,0.9,0.5,1.7,0.6,2.3h0c1,5.4,1.9,10.9,2.8,16.3c1.9,11.6,3.8,23.7,7,35.4
	c13.8,51.5,40.7,101.5,82.3,153c65,80.6,147.8,151.4,253.1,216.7c4.3,2.6,8.7,4,13.3,4c5.1,0,10.4-1.7,15.9-5
	c90.1-55.8,164.3-116.8,226.8-186.4c41.6-46.3,71.5-91.6,91.6-138.4c0.8-1.8,1.5-3.6,2.3-5.4c15.4-27,24.3-58.3,24.3-91.7
	C860.7,400.7,860.6,397.2,860.4,393.6z"/>
</svg>
