<svg height="512pt" viewBox="-72 0 512 512" width="512pt" xmlns="http://www.w3.org/2000/svg"><path d="m8 512h351.984375c4.421875 0 8-3.574219 8-8s-3.578125-8-8-8h-96v-98.414062c33.832031-24.699219 55.96875-64.507813 56.078125-109.472657 0-.035156.015625-.058593.015625-.089843v-40.015626c0-13.222656-10.6875-23.96875-23.863281-24.136718-.054688 0-.09375-.03125-.152344-.03125h-.09375v-199.839844c0-13.230469-10.769531-24-24-24h-175.953125c-13.230469 0-24 10.769531-24 24v199.863281c-.023437 0-.039063.007813-.054687.007813-13.183594.160156-23.871094 10.914062-23.871094 24.136718v40.015626c0 .03125.015625.054687.015625.089843.109375 44.886719 22.167969 84.628907 55.894531 109.335938v98.550781h-96c-4.425781 0-8 3.574219-8 8s3.574219 8 8 8zm80.015625-472.015625h71.855469c.039062 0 .082031.023437.121094.023437h48c.039062 0 .078124-.023437.121093-.023437h71.855469v183.863281h-191.953125zm79.976563-16v-7.984375h32v7.984375zm-95.753907 215.863281h6.960938c.28125.03125.519531.167969.816406.167969s.527344-.136719.816406-.167969h206.328125c.28125.03125.519532.167969.816406.167969.296876 0 .527344-.136719.816407-.167969h7.136719c4.445312 0 8.046874 3.585938 8.132812 8.015625h-239.941406c.078125-4.421875 3.679687-8.015625 8.117187-8.015625zm-8.148437 24.015625h239.988281v8.160157h-239.988281zm215.878906-239.878906h-63.976562v-7.984375h55.976562c4.40625 0 7.992188 3.585938 8 7.984375zm-183.953125-7.984375h55.976563v7.984375h-63.976563c.007813-4.398437 3.59375-7.984375 8-7.984375zm-31.910156 272.023438h239.964843c-.140624 66.054687-53.902343 119.753906-119.980468 119.753906-66.097656 0-119.867188-53.699219-119.984375-119.753906zm55.894531 119.640624c19.113281 10.257813 40.921875 16.113282 64.089844 16.113282 23.09375 0 44.832031-5.824219 63.894531-16.015625v88.238281h-127.984375zm0 0"/></svg>