<?xml version="1.0" encoding="iso-8859-1"?>
<!-- Generator: Adobe Illustrator 19.0.0, SVG Export Plug-In . SVG Version: 6.00 Build 0)  -->
<svg version="1.1" id="Capa_1" xmlns="http://www.w3.org/2000/svg" xmlns:xlink="http://www.w3.org/1999/xlink" x="0px" y="0px"
	 viewBox="0 0 512 512" style="enable-background:new 0 0 512 512;" xml:space="preserve">
<g>
	<g>
		<path d="M384,307.2h-68.267c-4.719,0-8.533,3.814-8.533,8.533V358.4h-93.867c-4.71,0-8.533,3.814-8.533,8.533V435.2
			c0,4.719,3.823,8.533,8.533,8.533H307.2v59.733c0,4.719,3.814,8.533,8.533,8.533H384c4.719,0,8.533-3.814,8.533-8.533V315.733
			C392.533,311.014,388.719,307.2,384,307.2z M375.467,494.933h-51.2V435.2c0-4.719-3.814-8.533-8.533-8.533h-93.867v-51.2h93.867
			c4.719,0,8.533-3.814,8.533-8.533v-42.667h51.2V494.933z"/>
	</g>
</g>
<g>
	<g>
		<rect x="256" y="366.933" width="17.067" height="68.267"/>
	</g>
</g>
<g>
	<g>
		<path d="M247.467,0c-70.579,0-128,57.421-128,128v34.133c0,4.71,3.823,8.533,8.533,8.533h34.133c4.71,0,8.533-3.823,8.533-8.533
			V128c0-42.342,34.458-76.8,76.8-76.8c42.351,0,76.8,34.458,76.8,76.8v187.733h17.067V128c0-51.755-42.112-93.867-93.867-93.867
			S153.6,76.245,153.6,128v25.6h-17.067V128c0-61.167,49.766-110.933,110.933-110.933S358.4,66.833,358.4,128v187.733h17.067V128
			C375.467,57.421,318.046,0,247.467,0z"/>
	</g>
</g>
<g>
	<g>
		<rect x="136.533" y="119.467" width="34.133" height="17.067"/>
	</g>
</g>
<g>
	<g>
		<rect x="298.667" y="494.933" width="102.4" height="17.067"/>
	</g>
</g>
<g>
	<g>
		<path d="M150.443,307.2c-1.391,0-2.765,0.094-4.147,0.273c-17.015,2.27-29.022,17.971-26.761,34.961l5.547,42.667
			c0.555,4.25,4.181,7.432,8.465,7.432h34.133c4.309,0,7.953-3.217,8.474-7.501l5.188-42.573c0.179-1.306,0.265-2.611,0.265-3.934
			C181.658,321.306,167.689,307.26,150.443,307.2z M164.403,340.301l-4.284,35.166h-19.081l-4.582-35.251
			c-1.024-7.706,4.403-14.797,12.1-15.821c0.623-0.085,1.254-0.128,1.852-0.128c7.808,0.026,14.148,6.4,14.123,14.2
			C164.523,339.055,164.489,339.635,164.403,340.301z"/>
	</g>
</g>
<g>
	<g>
		<path d="M181.521,459.733l-5.376-42.667c-0.538-4.267-4.164-7.467-8.465-7.467h-34.133c-4.292,0-7.91,3.183-8.457,7.433
			l-5.538,42.633c-0.196,1.468-0.29,2.935-0.273,4.395c0.068,8.311,3.379,16.111,9.31,21.939c5.871,5.769,13.602,8.934,21.751,8.934
			c1.374-0.068,2.765-0.085,4.198-0.247C171.614,492.467,183.723,476.783,181.521,459.733z M152.388,477.747
			c-0.597,0.077-1.186,0.119-1.86,0.119c-3.721,0.06-7.305-1.399-9.993-4.036c-2.679-2.645-4.173-6.161-4.207-9.95
			c-0.009-0.649,0.034-1.297,0.128-1.98l4.582-35.234h19.115l4.429,35.226C165.581,469.632,160.094,476.749,152.388,477.747z"/>
	</g>
</g>
<g>
	<g>
		<path d="M170.667,375.467h-51.2c-4.71,0-8.533,3.814-8.533,8.533v34.133c0,4.719,3.823,8.533,8.533,8.533h51.2
			c4.71,0,8.533-3.814,8.533-8.533V384C179.2,379.281,175.377,375.467,170.667,375.467z M162.133,409.6H128v-17.067h34.133V409.6z"
			/>
	</g>
</g>
<g>
	<g>
		<path d="M213.333,375.467h-42.667c-4.71,0-8.533,3.814-8.533,8.533v34.133c0,4.719,3.823,8.533,8.533,8.533h42.667
			c4.71,0,8.533-3.814,8.533-8.533V384C221.867,379.281,218.044,375.467,213.333,375.467z M204.8,409.6h-25.6v-17.067h25.6V409.6z"
			/>
	</g>
</g>
<g>
</g>
<g>
</g>
<g>
</g>
<g>
</g>
<g>
</g>
<g>
</g>
<g>
</g>
<g>
</g>
<g>
</g>
<g>
</g>
<g>
</g>
<g>
</g>
<g>
</g>
<g>
</g>
<g>
</g>
</svg>
